<svg width="30" height="30" viewBox="0 0 30 30" fill="none" xmlns="http://www.w3.org/2000/svg">
<path d="M17.9375 2.5H12.0625C10.7625 2.5 9.69995 3.55 9.69995 4.85V6.025C9.69995 7.325 10.75 8.375 12.05 8.375H17.9375C19.2375 8.375 20.2875 7.325 20.2875 6.025V4.85C20.3 3.55 19.2375 2.5 17.9375 2.5Z" fill="white"/>
<path d="M21.55 6.02497C21.55 8.01247 19.9251 9.63747 17.9376 9.63747H12.0625C10.075 9.63747 8.45005 8.01247 8.45005 6.02497C8.45005 5.32497 7.70005 4.88747 7.07505 5.21247C6.17974 5.68925 5.43104 6.40065 4.90916 7.27044C4.38729 8.14023 4.11191 9.13563 4.11255 10.15V21.9125C4.11255 24.9875 6.62505 27.5 9.70005 27.5H20.3C23.375 27.5 25.8875 24.9875 25.8875 21.9125V10.15C25.8875 8.01247 24.6875 6.14997 22.9251 5.21247C22.3001 4.88747 21.55 5.32497 21.55 6.02497ZM15.475 21.1875H10.0001C9.48755 21.1875 9.06255 20.7625 9.06255 20.25C9.06255 19.7375 9.48755 19.3125 10.0001 19.3125H15.475C15.9875 19.3125 16.4125 19.7375 16.4125 20.25C16.4125 20.7625 15.9875 21.1875 15.475 21.1875ZM18.75 16.1875H10.0001C9.48755 16.1875 9.06255 15.7625 9.06255 15.25C9.06255 14.7375 9.48755 14.3125 10.0001 14.3125H18.75C19.2626 14.3125 19.6875 14.7375 19.6875 15.25C19.6875 15.7625 19.2626 16.1875 18.75 16.1875Z" fill="white"/>
</svg>
