<svg width="13" height="13" viewBox="0 0 13 13" fill="none" xmlns="http://www.w3.org/2000/svg">
<path d="M5.88125 11.5125C7.37475 11.5125 8.80708 10.9192 9.86315 9.86315C10.9192 8.80708 11.5125 7.37475 11.5125 5.88125C11.5125 4.38775 10.9192 2.95542 9.86315 1.89935C8.80708 0.843291 7.37475 0.25 5.88125 0.25C4.38775 0.25 2.95542 0.843291 1.89935 1.89935C0.843291 2.95542 0.25 4.38775 0.25 5.88125C0.25 7.37475 0.843291 8.80708 1.89935 9.86315C2.95542 10.9192 4.38775 11.5125 5.88125 11.5125ZM12.7437 10.8438C12.5375 10.4625 12.1 10.25 11.5125 10.25C11.0688 10.25 10.6875 10.4313 10.4625 10.7438C10.2375 11.0563 10.1875 11.475 10.325 11.8937C10.5938 12.7062 11.0625 12.8875 11.3187 12.9188C11.3562 12.925 11.3938 12.925 11.4375 12.925C11.7125 12.925 12.1375 12.8063 12.55 12.1875C12.8813 11.7063 12.9437 11.225 12.7437 10.8438Z" fill="white"/>
</svg>
