<svg width="15" height="15" viewBox="0 0 15 15" fill="none" xmlns="http://www.w3.org/2000/svg">
<path d="M14.6714 9.03008L13.6816 7.61654C13.4626 7.30827 13.2699 6.71429 13.2699 6.35338V4.94737C13.2699 2.21804 10.686 0 7.51517 0C4.33559 0.0075188 1.75163 2.21804 1.75163 4.94737V6.34586C1.75163 6.70677 1.55893 7.30075 1.34871 7.60902L0.358927 9.02256C-0.0177171 9.57143 -0.105309 10.1955 0.131189 10.7368C0.367686 11.2857 0.901995 11.7218 1.60273 11.9173C2.54872 12.188 3.50347 12.3835 4.47574 12.5263C4.57209 12.5414 4.66844 12.5489 4.76479 12.5639L5.15019 12.609C5.37793 12.6391 5.60567 12.6617 5.84217 12.6767C6.94629 12.7661 8.05776 12.7661 9.16189 12.6767C9.36335 12.6617 9.56481 12.6466 9.75751 12.6241C9.91518 12.609 10.0728 12.594 10.2305 12.5714C10.3269 12.5639 10.4232 12.5489 10.5196 12.5338C11.5006 12.3985 12.4729 12.188 13.4188 11.9173C13.7461 11.8234 14.0448 11.668 14.2933 11.4625C14.5418 11.257 14.7338 11.0065 14.8553 10.7293C15.1006 10.1654 15.0305 9.54887 14.6714 9.03008ZM8.15459 5.97744C8.15459 6.129 8.08445 6.27434 7.95961 6.3815C7.83477 6.48867 7.66544 6.54887 7.48889 6.54887C7.31234 6.54887 7.14301 6.48867 7.01817 6.3815C6.89333 6.27434 6.82319 6.129 6.82319 5.97744V3.64662C6.82319 3.49506 6.89333 3.34972 7.01817 3.24256C7.14301 3.13539 7.31234 3.07519 7.48889 3.07519C7.66544 3.07519 7.83477 3.13539 7.95961 3.24256C8.08445 3.34972 8.15459 3.49506 8.15459 3.64662V5.97744ZM9.97649 13.5038C9.79229 13.9415 9.45557 14.3199 9.01207 14.5876C8.56857 14.8553 8.03981 14.9993 7.49765 15C6.80567 15 6.12246 14.7594 5.64071 14.3308C5.36041 14.1053 5.15019 13.8045 5.02756 13.4962C5.14143 13.5113 5.2553 13.5188 5.37793 13.5338C5.57939 13.5564 5.78961 13.5789 5.99983 13.594C6.4991 13.6316 7.00714 13.6541 7.51517 13.6541C8.01444 13.6541 8.51371 13.6316 9.00423 13.594C9.18817 13.5789 9.37211 13.5714 9.54729 13.5489L9.97649 13.5038Z" fill="white"/>
</svg>
