<svg width="15" height="15" viewBox="0 0 15 15" fill="none" xmlns="http://www.w3.org/2000/svg">
<path d="M14.3027 14.0383H6.59025C6.2076 14.0383 5.89298 13.7051 5.89298 13.2998C5.89298 12.8946 6.2076 12.5614 6.59025 12.5614H14.3027C14.6854 12.5614 15 12.8946 15 13.2998C15 13.7141 14.6854 14.0383 14.3027 14.0383ZM14.3027 8.37135H6.59025C6.2076 8.37135 5.89298 8.03816 5.89298 7.63294C5.89298 7.22771 6.2076 6.89452 6.59025 6.89452H14.3027C14.6854 6.89452 15 7.22771 15 7.63294C15 8.03816 14.6854 8.37135 14.3027 8.37135ZM14.3027 2.70085H6.59025C6.2076 2.70085 5.89298 2.36766 5.89298 1.96243C5.89298 1.5572 6.2076 1.22401 6.59025 1.22401H14.3027C14.6854 1.22401 15 1.5572 15 1.96243C15 2.36766 14.6854 2.70085 14.3027 2.70085ZM1.47128 3.92644C1.2842 3.92644 1.10563 3.84539 0.978085 3.71032L0.204286 2.89085C0.073484 2.75233 0 2.56446 0 2.36856C0 2.27156 0.0180407 2.17551 0.0530922 2.08589C0.0881437 1.99628 0.13952 1.91485 0.204286 1.84626C0.269053 1.77767 0.345942 1.72327 0.430564 1.68615C0.515186 1.64903 0.605883 1.62992 0.697477 1.62992C0.882459 1.62992 1.05986 1.70774 1.19067 1.84626L1.47128 2.14343L3.29098 0.216342C3.42178 0.0778203 3.59919 -2.91912e-09 3.78417 0C3.96915 2.91912e-09 4.14656 0.0778203 4.27736 0.216342C4.40816 0.354863 4.48165 0.542738 4.48165 0.738637C4.48165 0.934536 4.40816 1.12241 4.27736 1.26093L1.96447 3.71032C1.82841 3.84539 1.65835 3.92644 1.47128 3.92644ZM1.47128 9.59694C1.29271 9.59694 1.11414 9.5249 0.978085 9.38082L0.204286 8.56136C0.073484 8.42284 0 8.23496 0 8.03906C0 7.84317 0.073484 7.65529 0.204286 7.51677C0.335088 7.37825 0.512494 7.30043 0.697477 7.30043C0.882459 7.30043 1.05986 7.37825 1.19067 7.51677L1.47128 7.81394L3.29098 5.88685C3.42178 5.74833 3.59919 5.67051 3.78417 5.67051C3.96915 5.67051 4.14656 5.74833 4.27736 5.88685C4.40816 6.02537 4.48165 6.21324 4.48165 6.40914C4.48165 6.60504 4.40816 6.79292 4.27736 6.93144L1.96447 9.38082C1.82841 9.5249 1.64984 9.59694 1.47128 9.59694ZM1.47128 15C1.29271 15 1.11414 14.928 0.978085 14.7839L0.204286 13.9644C0.13952 13.8958 0.0881437 13.8144 0.0530922 13.7248C0.0180407 13.6352 0 13.5391 0 13.4421C0 13.3451 0.0180407 13.2491 0.0530922 13.1595C0.0881437 13.0698 0.13952 12.9884 0.204286 12.9198C0.335088 12.7813 0.512494 12.7035 0.697477 12.7035C0.789071 12.7035 0.879768 12.7226 0.964389 12.7597C1.04901 12.7968 1.1259 12.8512 1.19067 12.9198L1.47128 13.217L3.29098 11.2899C3.42358 11.161 3.59804 11.0914 3.77797 11.0955C3.95789 11.0996 4.12938 11.1771 4.25663 11.3119C4.38389 11.4466 4.45708 11.6282 4.46095 11.8188C4.46481 12.0093 4.39904 12.1941 4.27736 12.3345L1.96447 14.7839C1.82841 14.928 1.64984 15 1.47128 15Z" fill="white"/>
</svg>
