<svg width="30" height="30" viewBox="0 0 30 30" fill="none" xmlns="http://www.w3.org/2000/svg">
<path d="M17.9375 2.5H12.0625C10.7625 2.5 9.69995 3.55 9.69995 4.85V6.025C9.69995 7.325 10.75 8.375 12.05 8.375H17.9375C19.2375 8.375 20.2875 7.325 20.2875 6.025V4.85C20.3 3.55 19.2375 2.5 17.9375 2.5Z" fill="white"/>
<path d="M21.55 6.02497C21.55 8.01247 19.9251 9.63747 17.9376 9.63747H12.0625C10.075 9.63747 8.45005 8.01247 8.45005 6.02497C8.45005 5.32497 7.70005 4.88747 7.07505 5.21247C6.17974 5.68925 5.43104 6.40065 4.90916 7.27044C4.38729 8.14023 4.11191 9.13563 4.11255 10.15V21.9125C4.11255 24.9875 6.62505 27.5 9.70005 27.5H20.3C23.375 27.5 25.8875 24.9875 25.8875 21.9125V10.15C25.8875 8.01247 24.6875 6.14997 22.9251 5.21247C22.3001 4.88747 21.55 5.32497 21.55 6.02497ZM19.1751 15.9125L14.1751 20.9125C13.9875 21.1 13.7501 21.1875 13.5126 21.1875C13.2751 21.1875 13.0375 21.1 12.85 20.9125L10.975 19.0375C10.8007 18.8611 10.7029 18.623 10.7029 18.375C10.7029 18.1269 10.8007 17.8889 10.975 17.7125C11.3375 17.35 11.9376 17.35 12.3001 17.7125L13.5126 18.925L17.85 14.5875C18.2126 14.225 18.8126 14.225 19.1751 14.5875C19.5375 14.95 19.5375 15.55 19.1751 15.9125Z" fill="white"/>
</svg>
