<svg width="13" height="13" viewBox="0 0 13 13" fill="none" xmlns="http://www.w3.org/2000/svg">
<path d="M12.75 6.5C12.75 3.05625 9.94375 0.25 6.5 0.25C3.05625 0.25 0.25 3.05625 0.25 6.5C0.25 8.3125 1.03125 9.94375 2.26875 11.0875C2.26875 11.0938 2.26875 11.0938 2.2625 11.1C2.325 11.1625 2.4 11.2125 2.4625 11.2687C2.5 11.3 2.53125 11.3313 2.56875 11.3563C2.68125 11.45 2.80625 11.5375 2.925 11.625L3.05 11.7125C3.16875 11.7937 3.29375 11.8688 3.425 11.9375C3.46875 11.9625 3.51875 11.9937 3.5625 12.0188C3.6875 12.0875 3.81875 12.15 3.95625 12.2062C4.00625 12.2312 4.05625 12.2562 4.10625 12.275C4.24375 12.3313 4.38125 12.3812 4.51875 12.425C4.56875 12.4437 4.61875 12.4625 4.66875 12.475C4.81875 12.5187 4.96875 12.5562 5.11875 12.5938C5.1625 12.6062 5.20625 12.6187 5.25625 12.625C5.43125 12.6625 5.60625 12.6875 5.7875 12.7063C5.8125 12.7063 5.8375 12.7125 5.8625 12.7188C6.075 12.7375 6.2875 12.75 6.5 12.75C6.7125 12.75 6.925 12.7375 7.13125 12.7188C7.15625 12.7188 7.18125 12.7125 7.20625 12.7063C7.3875 12.6875 7.5625 12.6625 7.7375 12.625C7.78125 12.6187 7.825 12.6 7.875 12.5938C8.025 12.5562 8.18125 12.525 8.325 12.475C8.375 12.4562 8.425 12.4375 8.475 12.425C8.6125 12.375 8.75625 12.3313 8.8875 12.275C8.9375 12.2562 8.9875 12.2312 9.0375 12.2062C9.16875 12.15 9.3 12.0875 9.43125 12.0188C9.48125 11.9937 9.525 11.9625 9.56875 11.9375C9.69375 11.8625 9.81875 11.7937 9.94375 11.7125C9.9875 11.6875 10.025 11.6563 10.0687 11.625C10.1937 11.5375 10.3125 11.45 10.425 11.3563C10.4625 11.325 10.4938 11.2937 10.5312 11.2687C10.6 11.2125 10.6687 11.1562 10.7313 11.1C10.7313 11.0938 10.7312 11.0938 10.725 11.0875C11.9688 9.94375 12.75 8.3125 12.75 6.5ZM9.5875 9.60625C7.89375 8.46875 5.11875 8.46875 3.4125 9.60625C3.1375 9.7875 2.9125 10 2.725 10.2312C1.74051 9.23892 1.1879 7.89784 1.1875 6.5C1.1875 3.56875 3.56875 1.1875 6.5 1.1875C9.43125 1.1875 11.8125 3.56875 11.8125 6.5C11.8125 7.95 11.225 9.26875 10.275 10.2312C10.0938 10 9.8625 9.7875 9.5875 9.60625Z" fill="white"/>
</svg>
