<svg width="15" height="15" viewBox="0 0 15 15" fill="none" xmlns="http://www.w3.org/2000/svg">
<path d="M8.24375 3.75H4.24375C4.08125 3.75 3.925 3.75625 3.775 3.775C2.09375 3.91875 1.25 4.9125 1.25 6.74375V9.24375C1.25 11.7438 2.25 12.2375 4.24375 12.2375H4.49375C4.63125 12.2375 4.8125 12.3313 4.89375 12.4375L5.64375 13.4375C5.975 13.8813 6.5125 13.8813 6.84375 13.4375L7.59375 12.4375C7.6875 12.3125 7.8375 12.2375 7.99375 12.2375H8.24375C10.075 12.2375 11.0687 11.4 11.2125 9.7125C11.2312 9.5625 11.2375 9.40625 11.2375 9.24375V6.74375C11.2375 4.75 10.2375 3.75 8.24375 3.75ZM4.0625 8.75C3.7125 8.75 3.4375 8.46875 3.4375 8.125C3.4375 7.78125 3.71875 7.5 4.0625 7.5C4.40625 7.5 4.6875 7.78125 4.6875 8.125C4.6875 8.46875 4.40625 8.75 4.0625 8.75ZM6.24375 8.75C5.89375 8.75 5.61875 8.46875 5.61875 8.125C5.61875 7.78125 5.9 7.5 6.24375 7.5C6.5875 7.5 6.86875 7.78125 6.86875 8.125C6.86875 8.46875 6.59375 8.75 6.24375 8.75ZM8.43125 8.75C8.08125 8.75 7.80625 8.46875 7.80625 8.125C7.80625 7.78125 8.0875 7.5 8.43125 7.5C8.775 7.5 9.05625 7.78125 9.05625 8.125C9.05625 8.46875 8.775 8.75 8.43125 8.75Z" fill="white"/>
<path d="M13.7375 4.24375V6.74375C13.7375 7.99375 13.35 8.84375 12.575 9.3125C12.3875 9.425 12.1687 9.275 12.1687 9.05625L12.175 6.74375C12.175 4.24375 10.7437 2.8125 8.24372 2.8125L4.43747 2.81875C4.21872 2.81875 4.06872 2.6 4.18122 2.4125C4.64997 1.6375 5.49997 1.25 6.74372 1.25H10.7437C12.7375 1.25 13.7375 2.25 13.7375 4.24375Z" fill="white"/>
</svg>
