<svg width="30" height="30" viewBox="0 0 30 30" fill="none" xmlns="http://www.w3.org/2000/svg">
<path d="M10.4875 23.1125V10.4125C10.4875 9.91253 10.6375 9.42503 10.9125 9.01253L14.325 3.93753C14.8625 3.12503 16.2 2.55003 17.3375 2.97503C18.5625 3.38753 19.375 4.76253 19.1125 5.98753L18.4625 10.075C18.4125 10.45 18.5125 10.7875 18.725 11.05C18.9375 11.2875 19.25 11.4375 19.5875 11.4375H24.725C25.7125 11.4375 26.5625 11.8375 27.0625 12.5375C27.5375 13.2125 27.625 14.0875 27.3125 14.975L24.2375 24.3375C23.85 25.8875 22.1625 27.15 20.4875 27.15H15.6125C14.775 27.15 13.6 26.8625 13.0625 26.325L11.4625 25.0875C10.85 24.625 10.4875 23.8875 10.4875 23.1125ZM6.5125 7.97378H5.225C3.2875 7.97378 2.5 8.72378 2.5 10.5738V23.1488C2.5 24.9988 3.2875 25.7488 5.225 25.7488H6.5125C8.45 25.7488 9.2375 24.9988 9.2375 23.1488V10.5738C9.2375 8.72378 8.45 7.97378 6.5125 7.97378Z" fill="white"/>
</svg>
